<?xml version="1.0" encoding="UTF-8"?> <svg xmlns="http://www.w3.org/2000/svg" xmlns:xlink="http://www.w3.org/1999/xlink" style="isolation:isolate" viewBox="695 327 403.648 106.542" width="403.648" height="106.542"><defs><symbol id="b" overflow="visible"><path d="M44.328 11.234c1.11-.28 1.797-.765 2.219-1.39h.062c1.532-1.453 3.047-3.25 4.235-5.406C52.297 1.733 53.75-.907 55.14-3.61c.343-.688.765-1.313 1.047-2.016.484-.828.968-1.734 1.312-2.625 2.156-4.031 4.297-8.328 4.156-8.531.563-1.594-1.453-1.735-2.218-.078-.282.625-1.657 3.265-2.016 3.89-1.031 1.938-2.14 3.875-3.188 5.828-.625 1.313-1.25 2.563-2 3.813a52.432 52.432 0 0 1-2.5 4.64c-.422.704-.765 1.532-1.187 2.157-.625.906-1.11 1.734-1.656 2.5-.563.968-1.453 1.937-2.36 2.625 0 .218-.281.218-.422.218l-.28-.218c-.063-.266-.204-.625-.204-.828-.344-3.329 1.531-16.157 1.734-17.61.282-1.875 2.078-9.86 2.422-11.453.14-.969.422-1.875.625-2.765.485-1.47.766-2.844 1.11-4.438.5-1.11.562-2.36.906-3.547.625-2.078 1.11-4.156 1.734-6.234.563-1.953.969-3.953 1.594-5.969v.063c.14-1.11.344-2.141.281-3.391.063-.203 0-.422 0-.703 0-.344-.203-.547-.625-.75-.547-.282-1.11-.36-1.734-.485-.688-.078-1.11.203-1.734.688l.078-.063c-.422.485-.703.891-.844 1.313v.062c-.969 1.953-1.938 3.813-2.844 5.625-1.516 2.985-2.984 5.97-4.64 8.813-1.454 3.328-2.985 6.234-4.516 9.5-1.031 2.219-2.14 4.36-3.188 6.578-1.312 2.844-2.843 5.828-4.297 8.531-.484 1.531-3.468 6.875-4.78 8.813l.062-1.11c.062-.406.062-.828.14-1.25 0 .141.766-6.375 1.047-7.343.063-1.188.266-2.36.61-3.61v.063c.218-1.938.359-3.953.843-5.828.203-1.735.547-3.594.891-5.407.281-1.593.563-3.125.766-4.718.218-.891.422-1.938.562-2.97.14-1.25.281-2.64.485-3.89.406-3.047.765-6.11.546-9.093-.062-.891-.14-1.797-.484-2.626-.547-1.671-1.734-2.359-3.61-2.296-.265 0-.546.078-.89.14-.563.14-1.11.203-1.531.625-.766.766-1.172 1.532-1.657 2.297-.984 1.516-1.609 2.969-2.359 4.781-.562 1.313-1.25 2.703-1.812 4.157-.625 1.593-1.172 3.125-1.797 4.515-.563 1.657-1.25 3.25-1.813 4.922-.484 1.172-.969 2.563-1.656 3.813-.703 1.797-1.313 3.75-2.078 5.484-.078.344-.219.766-.422 1.375a653.216 653.216 0 0 1-1.39 3.203c-.485 1.516-1.11 3.11-1.735 4.578-.547 1.516-1.172 2.906-1.938 4.219-.421 1.188-.968 2.094-1.453 3.203 0 .063-.14.688-.968.547.14-.547-.079-1.11 0-1.797 0-1.25.203-2.64.265-3.953.36-3.125 2.5-16.094 2.781-17.625.547-1.938 1.11-3.875 1.532-5.969.125-.484.406-1.734.484-2.562.14-1.39-2.219-1.313-3.125-.688-.562.344-1.937 3.25-2.297 4.297-.484 2.078-1.031 4.016-1.375 5.969-.281 1.453-.484 2.984-.843 4.297-.344 2.422-.75 4.86-1.11 7.36A49.805 49.805 0 0 0-.828-7.97c-.219 1.516-.14 3.047-.14 4.64 0 .767.202 1.657.28 2.642v.062c-.078.688.125 1.39.485 2.219.14.343.406.625.969.906.765.344 1.39.344 2.14.281h-.062c.344-.14.765-.14.969-.281.343-.078.624-.14.828-.484A14.286 14.286 0 0 0 6.17 0C6.595-.766 7-1.531 7.36-2.422c.891-1.594 1.735-3.265 2.344-4.937.422-1.032.906-2.141 1.25-3.188.703-1.515 1.328-3.11 1.953-4.719.406-1.109.89-2.14 1.313-3.328.422-1.031.687-1.937 1.172-3.047.14-.343.218-.828.5-1.172.265-.703.609-1.25.687-1.875v-.078c.485-1.172.969-2.14 1.39-3.328.485-1.312.97-2.703 1.454-4.015.765-1.875 1.531-3.891 2.281-5.766a64.602 64.602 0 0 1 2.844-6.031v-.063c.281-.484 1.25-1.594 1.812-1.875.063.344.063.625.063.828.14 2.22-.063 4.438-.266 6.735-.281 2.843-.906 5.828-1.328 8.797-.344 1.734-.547 3.609-.906 5.421-.266 1.594-.61 3.11-.89 4.5a24.547 24.547 0 0 1-.626 4.172v-.078c-.14 1.25-.218 2.422-.484 3.531-.281 2.016-.625 3.97-.844 6.047a185.688 185.688 0 0 1-.75 5.828c0 .891-.078 1.938-.078 2.907 0 .687.078 1.312.14 2.078.141.828.766 1.39 1.532 1.531.547.063.89.063 1.39.063.547 0 1.172-.204 1.938-.829v.063c.344-.406.766-1.031 1.25-1.594.547-.968 4.781-9.078 5.328-10.265.219-.485.422-1.172.766-1.797.625-1.188 1.187-2.297 1.734-3.328.219-.563.484-.97.766-1.532.484-1.109 1.047-2.218 1.531-3.25.688-1.468 1.39-2.78 1.938-4.234.687-1.11 1.187-2.297 1.734-3.469.687-1.39 1.39-2.703 2.016-4.031.828-1.797 1.656-3.531 2.703-5.266.343-.968 1.875-3.89 2.28-4.578-.405 1.672-1.733 6.875-2.14 8.11-.343 1.187-.625 2.437-.968 3.609-.22.906-.422 1.734-.626 2.563-.562 2.234-1.109 4.375-1.53 6.53-.344 1.735-.626 3.329-.97 5.204C40.36-7.766 39.47.484 39.392 1.875c-.141 2.016-.141 4.094.359 6.094.344.984.547 1.672 1.11 2.297 1.03 1.109 2.218 1.312 3.468.968zm0 0"></path></symbol><symbol id="c" overflow="visible"><path d="M6.938-.563c1.39.422 1.796.422 2.984-.687 1.031-.906 1.875-2.016 2.703-3.125.547-.75 1.11-1.594 1.656-2.36 3.266-4.984 5.344-8.39 6.188-9.765.89-1.734-1.25-2.016-1.953-.844-1.11 1.813-3.532 5.625-3.813 6.032a187.961 187.961 0 0 0-3.187 4.578C10.609-5.406 9.64-4.156 8.53-3.047c-.062.063-.14.063-.281.203 0-.562 0-1.047.14-1.531a55.048 55.048 0 0 1 1.047-4.578c.266-.969.547-1.86.891-2.766.844-2.156 1.672-4.297 2.36-6.515.28-.844.359-1.672.359-2.578-.078-.688-.5-1.11-1.11-1.313-.28-.063-.562-.203-.843-.281-.485-.063-.766.078-.969.422-.14.203-.203.343-.281.547a52.31 52.31 0 0 1-3.328 6.53c0 .063-.141.063-.204.126 0-.203-.062-.406-.062-.61 0-.703 0-1.468.063-2.234 0-.484-.141-1.031-.344-1.516-.282-.703-.907-1.187-1.594-1.53-.906-.345-1.672-.282-2.36.421a5.387 5.387 0 0 0-1.187 1.39c-.828 1.376-1.453 2.97-2 4.5-.36.97-.625 2.016-.906 2.985a13.41 13.41 0 0 0-.625 4.094c-.078.422 0 .828.14 1.25.141.547.344 1.11.766 1.453.625.562 1.375.766 2.14.687.344 0 .704-.125.907-.343l1.031-1.032c.844-.984 1.61-1.953 2.297-2.984.14-.219.203-.484.484-.563 0 .079.063.141.063.22-.203.827-.266 1.655-.344 2.484-.14 1.328.078 2.578.485 3.828.28.828.765 1.453 1.671 1.719zM1.39-7.843c0-.204-.079-.345 0-.485.625-3.188 1.593-6.235 2.562-9.36 0-.062.063-.062.203-.203 0 .203.078.266.078.407v1.328c0 .265.141.625.204.89.078.563.484.704.968.766h.703c.063.281-.078.422-.218.563-.485.828-1.032 1.593-1.594 2.421-.625.97-1.39 1.875-2.14 2.782-.22.265-.485.546-.766.89zm0 0"></path></symbol><symbol id="d" overflow="visible"><path d="M-1.313.344c.266 0 .547-.14.688-.406.203-.282.281-.625.422-.985.406-.969.687-1.937 1.031-2.969.281-1.187.766-2.359 1.25-3.468.14-.282.203-.563.485-.766.078.063.14.14.14.203.14.344.281.563.625.766.078.062.14.203.14.343.204.344.345.688.485 1.11a11.593 11.593 0 0 0 1.672 2.36c.688.765 1.453 1.187 2.281 1.452 1.047.422 2.016.22 2.907-.484.218-.14.421-.344.562-.547 1.11-1.187 2.078-2.437 2.906-3.89 1.328-2.22 2.64-4.641 3.828-7 .97-1.813.547-1.391 1.375-2.922.36-.891-1.312-1.875-2.28 0-.626 1.328-.767 1.672-1.392 2.984-.203.422-.421.828-.624 1.188-.344.624-.626 1.171-.97 1.796a84.844 84.844 0 0 1-1.937 3.125 16.74 16.74 0 0 1-2.219 3.047c-.28.203-.484.485-.765.703-.078.063-.203.063-.344.125-.078-.125-.078-.203-.078-.265-.281-1.188-.906-2.157-1.594-3.063-.062-.062-.203-.203-.203-.343-.078-.204-.14-.407-.281-.547a4.58 4.58 0 0 0-.547-.985c-.14-.203-.281-.484-.422-.687-.344-.547-.703-1.11-1.25-1.531-.062-.063-.14-.204-.281-.344.14-.14.281-.281.422-.406.406-.422.765-.704 1.172-1.047.843-.766 1.53-1.672 2.359-2.422a24.174 24.174 0 0 0 2.156-2.985c.203-.422.406-.906.625-1.39.063-.203.063-.422 0-.563-.703-.828-1.11-1.234-2.219-1.031-.343 0-.624.14-.906.422-.765 1.11-1.593 2.078-2.422 2.969-.359.484-.843.906-1.328 1.328 0 .062-.062 0-.14 0v.062h.078v-.547c.062-.359.203-.765.343-1.187.344-1.735.766-3.531 1.188-5.266.063-.343.203-.625.484-.828.75-.906 1.657-1.812 2.422-2.719 1.11-1.453 2.219-2.765 3.188-4.359.562-.969 1.187-1.813 1.812-2.703.125-.344.266-.766.547-1.11 1.39-2.359 2.5-4.859 3.406-7.5.485-1.656.828-3.39 1.032-5.124 0-.97 0-2.016-.282-2.985-.062-.625-.265-1.187-.75-1.672-.843-1.031-1.875-1.375-3.203-1.11-.547.079-1.031.485-1.453.845-1.031.828-1.875 1.937-2.625 3.047a20.373 20.373 0 0 0-1.672 2.906 38.293 38.293 0 0 0-2.219 5.14c-.343 1.11-.765 2.282-1.109 3.391-.203.625-.422 1.328-.562 2.016a46.858 46.858 0 0 0-.891 3.125c-.563 2.28-1.188 4.5-1.734 6.859-.344 1.11-1.454 6.172-1.532 6.313-.14.843-.343 1.53-.484 2.218-.422 1.532-.766 3.063-1.11 4.578-.343 1.391-.687 2.782-.968 4.172-.281 1.031-.485 2.14-.703 3.188-.203 1.25-.266 2.5-.406 3.672 0 .484-.079.968-.141 1.453 0 .484.281.844.687 1.047.422.14.844.28 1.329.203zm8.391-29.266c-.078-.344.063-.765.063-1.11.421-1.452.765-2.843 1.187-4.234.14-.625.344-1.25.547-1.875.219-.828.484-1.797.766-2.625.28-.906.625-1.812.906-2.718.14-.485.344-.97.547-1.453.281-.97.625-1.876 1.047-2.766.14-.422.343-.906.546-1.328.282-.625.485-1.25.844-1.938.625-.968 1.11-2.015 1.938-2.765.062-.079.14-.079.203-.079.281.344.344.829.422 1.313.062 1.11.062 2.156-.078 3.266-.407 2.703-1.235 5.14-2.36 7.562a49.07 49.07 0 0 1-3.875 6.938c-.765 1.312-1.672 2.5-2.562 3.609-.078.062-.078.125-.14.203zm0 0"></path></symbol><symbol id="e" overflow="visible"><path d="M1.875-4.781a5.4 5.4 0 0 0 2.906 0 19.08 19.08 0 0 0 4.313-2.016c.969-.625 1.937-1.312 2.765-2.078.907-.906 1.875-1.672 2.782-2.563 1.03-.984 2-1.953 2.984-2.921.61-.688 1.719-1.735 2.344-2.563.765-1.187-1.032-1.875-2.422-.484-2.016 2.14-5.266 5.125-7.422 7.14C8.812-9.094 7.422-8.109 5.75-7.422c-.89.422-1.938.688-2.906.828-.422.078-.766-.062-.828-.625-.141-.547-.282-1.25-.282-1.875 0-1.031.141-2.14.485-3.187.203-.547.281-1.11.625-1.735.625.282 1.11 0 1.594-.203.28-.14.562-.281.828-.484.562-.344 1.109-.828 1.593-1.313 1.047-.984 1.813-2.093 2.297-3.328.344-.843.547-1.734.688-2.64.078-.282 0-.563 0-.828 0-.36-.203-.704-.485-.907-.265-.281-.625-.562-.89-.765-.5-.344-1.047-.344-1.61-.141-1.171.422-2.218 1.188-3.109 2.078a16.34 16.34 0 0 0-2.703 3.266c-.14.281-.36.625-.484.906-.704.89-1.125 1.938-1.61 2.906-.344.906-.547 1.813-.828 2.703-.203.829-.344 1.735-.281 2.641.14 2.281 1.25 3.953 3.203 5.063.266.14.547.203.828.28zM4.156-16.5c.219-.625.563-1.188.907-1.734.828-1.25 1.875-2.641 2.296-2.985C7-19.079 5.75-17.687 4.156-16.5zm0 0"></path></symbol><symbol id="f" overflow="visible"><path d="M13.938 17.266c.14.078.343 0 .484 0 .562-.203.969-.547 1.328-1.032.406-.484.75-1.047 1.11-1.593.968-1.391 1.593-2.922 2.359-4.438.062-.078.062-.078.062-.14.485-1.047.907-2.157 1.39-3.204.688-1.312 1.25-2.765 1.798-4.156.484-1.25 6.734-16.297 7.765-19.203.563-1.39-1.312-1.953-1.937-.422-.766 1.797-6.594 15.875-7.281 17.75-.485 1.047-.828 2.156-1.25 3.188-1.11 2.718-3.266 7.218-5.063 10.265-.14.14-.203.281-.344.281-.078 0-.078-.062-.078-.14 0-.547.078-1.11.14-1.594.141-1.031.36-2.015.563-2.984.203-1.25.407-2.422.688-3.672.14-.828.344-1.656.562-2.563.344-1.328.688-2.64.97-3.953.28-1.11.624-2.219.968-3.328.562-1.875 1.172-3.75 1.797-5.625.14-.406.218-.828.422-1.25.562-1.453.968-2.906 1.39-4.437.281-.97.485-2.016.688-2.985.14-.765.218-1.515.078-2.281a10.47 10.47 0 0 0-.36-1.328c-.062-.125-.203-.266-.265-.406-.281-.141-.563-.344-.844-.485-.484-.343-.969-.281-1.515-.14-.422.062-.704.343-.907.687-.625.906-1.25 1.735-1.797 2.64-1.187 1.798-2.297 3.61-3.406 5.407-1.172 1.938-2.219 3.953-3.328 5.906-.063.063-.14.125-.344.344.063-.281.063-.422.14-.563.204-1.109.485-2.218.767-3.39.203-.969.546-2.016.75-3.063.218-.75.359-1.515.359-2.28 0-.204 0-.345-.078-.563-.344-.688-.828-1.375-1.657-1.657-.218-.14-.484-.203-.765-.28-.485-.063-.969-.063-1.328.343a8.24 8.24 0 0 0-.75.703c-.907.969-1.594 2-2.219 3.188-.844 1.39-1.594 2.906-2.438 4.296-.406.766-.687 1.532-1.171 2.22 0-.063-.079-.142-.079-.204.22-.828 1.594-5 1.813-5.625.281-.625.484-1.25.625-1.875.14-.406.203-.969-.281-1.25-.422-.266-.969-.406-1.531-.688a1.045 1.045 0 0 0-.766.079c-.266.125-.688.547-.89.828-.22.281-.423.547-.563.828-.828 1.39-1.25 2.922-1.735 4.375-.14.625-1.03 3.328-1.171 5.062v.891c0 .984.062 1.953.343 2.844.281 1.047 1.531 1.672 2.703 1.39.141 0 .344-.14.485-.265.14-.14.281-.36.344-.5.421-.688.843-1.313 1.187-2.078.14-.344.344-.688.484-1.032.829-1.593 1.594-3.203 2.5-4.796.547-1.11 1.25-2.141 1.875-3.188.063-.14.204-.203.344-.406 0 .203 0 .344-.078.484-.203 1.031-.484 2-.75 3.047a57.46 57.46 0 0 0-.422 1.734c-.14 1.047-.344 2.079-.484 3.188-.219 1.187-.078 2.297.343 3.406.204.485.563.828 1.047 1.031.485.22.97.282 1.454.282.343 0 .624-.063.828-.344.203-.281.484-.625.625-.906.421-.688.765-1.453 1.109-2.157.625-1.03 1.188-2.14 1.734-3.187.907-1.594 1.735-3.11 2.641-4.719.625-1.031 1.313-2.14 1.938-3.187a14.22 14.22 0 0 1 1.109-1.735c.062.219 0 .344 0 .485-.14.359-.203.703-.344 1.047a27.612 27.612 0 0 1-.765 2.359 101.937 101.937 0 0 1-1.391 4.016c-.766 2.437-1.594 4.796-2.219 7.28-.281.985-.547 1.876-.765 2.845-.407 1.734-.829 3.468-1.25 5.203-.266 1.468-.407 2.984-.547 4.437v.703c.062.344.062.766.062 1.11.078.484.14.968.219 1.453 0 .281.14.562.203.828.14.625.422 1.187.766 1.734.406.703 1.109.907 1.796 1.11zm0 0"></path></symbol><symbol id="g" overflow="visible"><path d="M-8.047 25.734a3.313 3.313 0 0 0 2.563 0c.906-.422 1.671-.968 2.437-1.672C-1.594 22.75-.344 21.22.766 19.625c.343-.547.687-1.11 1.03-1.594.282-.484.626-.906.845-1.39.765-1.453 1.593-2.766 2.14-4.297.282-.828.625-1.594.969-2.422.078-.281.14-.563.219-.828.281-.766.625-1.61.828-2.438.203-.687.422-1.39.625-2.078a50.667 50.667 0 0 0 1.25-4.64c.14-.563.281-1.11.422-1.672.203-.907.484-1.797.687-2.641.281-1.172.485-2.36.766-3.469.062-.343.203-.625.484-.828a34.655 34.655 0 0 1 1.656-1.797 573.544 573.544 0 0 1 4.938-4.86c.344-.343.688-.562 1.11-.968 1.171-1.39-1.11-2.219-1.954-1.39-1.172.687-3.187 2.78-4.922 4.515-.062 0-.14.063-.28.125.077-.125.077-.265.077-.344.14-1.03.344-2 .485-3.046.062-.282.062-.485.062-.766.078-1.11-1.25-1.797-2.14-1.938-.485-.078-.907.141-1.11.547-.14.36-.281.766-.422 1.11-.344 1.109-.828 2.156-1.312 3.203-.36.75-.703 1.453-1.11 2.14a61.61 61.61 0 0 1-1.953 2.844c-.343.563-.828 1.11-1.375 1.594-.078.078-.219.219-.422.078v-.344c0-.984.141-1.953.204-2.922.078-.625.14-1.25.28-1.875.282-1.171.626-2.28.907-3.39.203-.703.344-1.39.344-2.078 0-1.25-2.703-1.953-3.407-.563-.062.063-.062.14-.125.203-.765 1.735-1.39 3.547-1.734 5.485-.219 1.312-.36 2.703-.281 4.093.062.688.203 1.454.547 2.016C0-5.484 2.016-4.64 3.89-5.687c.687-.344 1.171-.907 1.656-1.532.281-.343.484-.687.906-1.11-.078.704-.203 1.188-.625 1.595-.422.484-.828 1.046-1.25 1.53C3.406-3.75 2.156-2.28.968-.827a52.164 52.164 0 0 0-2.905 3.875c-.704.906-1.25 1.812-1.875 2.703-.422.703-.907 1.39-1.391 2.094-.625 1.11-1.313 2.218-1.875 3.39-.969 1.735-1.734 3.61-2.422 5.547a34.692 34.692 0 0 0-1.047 3.89c-.14.626-.203 1.25-.14 1.876.078.484.218.89.484 1.375.5.844 1.25 1.39 2.156 1.812zm.281-1.672c-.078-.14-.203-.265-.28-.406-.204-.484-.345-.906-.282-1.39 0-.625 0-1.188.14-1.735a32.27 32.27 0 0 1 3.329-8.593c.843-1.61 1.812-3.204 2.78-4.797.626-.891 1.25-1.797 1.876-2.704.828-1.171 1.734-2.28 2.703-3.39.688-.844 1.39-1.672 2.016-2.438.062-.062.125-.14.203-.203.062 0 .14.063.14.063-.078.36-.14.765-.218 1.11a69.548 69.548 0 0 0-.97 3.405c-.202.766-.405 1.594-.687 2.282a17.421 17.421 0 0 1-.703 2.156 5.59 5.59 0 0 0-.265.969c-.344.828-.704 1.593-.97 2.421-.562 1.391-1.187 2.72-1.812 4.032a39.805 39.805 0 0 1-2.64 4.5c-.75 1.187-1.516 2.297-2.563 3.343-.281.266-.547.485-.765.75-.266.282-.625.485-1.032.625zm0 0"></path></symbol><symbol id="h" overflow="visible"><path d="M-7.563 25.031c.344 0 .766 0 1.11-.062.562-.063 1.11-.14 1.672-.203.343-.078.687-.078 1.031-.141.906-.281 1.813-.422 2.64-.766.141-.062.344-.14.548-.203 1.046-.218 2.015-.703 2.984-1.11.562-.218 1.11-.624 1.672-.843 1.11-.406 2.078-1.234 3.125-1.797.14 0 .203-.14.265-.203.22-.14.422-.281.563-.422.547-.343 1.11-.625 1.594-1.047.765-.609 1.593-1.172 2.296-1.937.063-.063.126-.14.204-.203a13.999 13.999 0 0 0 2.078-1.875c.484-.625 1.11-1.172 1.531-1.875.203-.281.484-.625.688-.969.421-.422.687-.828.968-1.313.485-.703.969-1.468 1.328-2.218.97-2.016 1.453-4.172 1.516-6.453.078-.563.14-1.188 0-1.735-.14-.969-.14-1.937-.484-2.844-.063-.28-.063-.562-.203-.828-.282-.625-.563-1.328-.907-1.953-.14-.406-.422-.828-.625-1.172a21.423 21.423 0 0 0-1.312-2.156c-.422-.625-.766-1.25-1.188-1.875A95.03 95.03 0 0 1 19-13.312c1.11-.704 2.297-1.329 3.406-2.016 1.11-.625 1.516-.969 2.844-1.594 1.656-.906.688-2.156-.828-1.453-1.188.688-2.36 1.313-3.469 2a424.074 424.074 0 0 0-6.11 3.547c-.14.062-.343.203-.484.203-.343-.422-.625-.766-.906-1.11a4.89 4.89 0 0 1-.547-.624c-.219-.344-.562-.625-.844-.907a9.298 9.298 0 0 1-1.109-1.109c-.265-.406-.687-.828-1.11-1.25-.546-.547-1.171-1.172-1.796-1.719l-.422-.422c-.203-.203-.484-.422-.688-.625-.906-.828-1.671-1.797-2.64-2.562-.063-.078-.14-.14-.203-.219-.14-.203-.344-.484-.485-.687-.28-.282-.625-.563-.765-.907-.281-.484-.563-.828-.766-1.312-.062-.078-.14-.203-.203-.281-.484-1.313-.563-2.563-.203-3.875.344-1.188.89-2.297 1.656-3.328.485-.626.906-1.25 1.39-1.954l.282-.28c.625-.548 1.11-1.235 1.734-1.72.344-.28.688-.625 1.032-.906.484-.422.968-.766 1.453-1.11.625-.343 1.25-.765 1.875-1.109 1.187-.562 2.437-1.109 3.75-1.453.422-.078.828-.14 1.25-.14.625 0 1.11.343 1.453.828.344.484.562 1.047.625 1.656 0 .703 0 1.39-.063 2.016-.218 1.328-.625 2.5-1.109 3.609-.36.688-.703 1.39-1.11 2.016-.14.062-.218.203-.28.343-.141.282-.079.485.14.688.203.14.406.219.625.219h.406c.485.203.907 0 1.188-.36.265-.265.484-.61.687-.89.282-.485.563-1.047.828-1.532a14.414 14.414 0 0 0 1.594-5.125v-1.672c-.062-1.109-.547-2.078-1.453-2.765-.828-.625-1.734-.984-2.766-1.188-.562-.14-1.109-.203-1.672-.28-.687-.063-1.453-.063-2.14.14-.563.14-1.047.281-1.61.343a3.994 3.994 0 0 0-1.453.485c-.828.422-1.734.766-2.562 1.25-1.11.625-2.156 1.25-3.125 2.156-.063.14-.281.203-.344.344a25.556 25.556 0 0 0-1.937 1.734 17.826 17.826 0 0 0-2.079 2.5c-.359.485-.765 1.047-1.109 1.594-.422.766-.844 1.531-1.047 2.422a18.464 18.464 0 0 0-.422 2.578c0 .547.141 1.11.22 1.656.202 1.047.687 2.016 1.171 2.844.625.906 1.25 1.734 2.016 2.5.14.14.203.281.406.422.562.625 1.187 1.234 1.734 1.86.703.702 1.39 1.327 2.094 2.015.688.625 1.313 1.39 2 2.078.078.078.219.219.36.281.406.281.827.766 1.109 1.188.547.687 1.234 1.312 1.734 2.078.063.062.063.062.125.14.422.344.625.829.985 1.313-.141.14-.282.203-.422.281-.563.406-1.188.828-1.797 1.25-1.125.75-2.156 1.516-3.266 2.36-.906.687-1.875 1.375-2.781 2.14-.89.766-1.735 1.453-2.563 2.219-1.25 1.11-2.5 2.219-3.609 3.406-.89.969-1.797 1.797-2.625 2.766C-7 5.062-8.188 6.516-9.36 7.969a37.73 37.73 0 0 0-4.718 7.078 24.278 24.278 0 0 0-1.531 3.61 8.506 8.506 0 0 0-.204 1.874c0 1.047.282 1.938 1.11 2.64.281.204.547.407.828.626 1.047.484 2.156.89 3.266 1.11 1.03.202 2.015.124 3.046.124zm-3.125-2c-.546 0-1.03-.14-1.593-.343-.766-.36-1.25-.985-1.25-1.875-.063-.422 0-.766.078-1.188.203-1.313.625-2.563 1.25-3.813.625-1.39 1.453-2.703 2.281-3.953.969-1.53 2.078-2.984 3.266-4.375A39.39 39.39 0 0 1-4.438 4.86c.97-1.046 1.875-2.078 2.844-3.062C-.766.969.141.203 1.046-.563A59.993 59.993 0 0 1 5.75-4.438c1.61-1.25 3.203-2.5 4.938-3.53.406-.282.828-.626 1.312-.985.14-.063.344-.203.547-.266.422.547.765 1.11 1.11 1.656.218.344.359.766.624 1.11.078.078.219.203.219.344 0 .28.203.484.344.765.203.703.625 1.328.687 2.016.078.203.078.422.14.547.345.906.423 1.875.423 2.844.14 1.875-.203 3.687-.828 5.421-.36.829-.704 1.594-1.188 2.36-.344.547-.625 1.11-1.031 1.593-.422.547-.844 1.11-1.328 1.657-.828 1.047-1.735 2.078-2.766 2.984-.562.422-1.11.906-1.594 1.313-.703.562-1.468 1.046-2.156 1.609-.562.547-1.312.828-1.937 1.234-.704.5-1.47.844-2.157 1.25-.203.141-.421.22-.625.36-.484.265-.968.547-1.453.75-.828.281-1.594.625-2.36.984-1.25.344-2.5.828-3.812 1.11-1.187.203-2.359.484-3.546.343zm0 0"></path></symbol><symbol id="i" overflow="visible"><path d="M-6.938 19.703h.625c.625-.078.829-.219 1.047-.765.204-.829.485-1.672.688-2.563.562-2.016 1.11-4.094 1.672-6.172.062-.281.125-.625.203-.906.14-.625.344-1.25.484-1.875l.828-3.266c.22-.828.422-1.734.704-2.562.343-1.172.546-2.36 1.109-3.39.625-1.329 1.172-2.72 1.86-4.032.624-1.25 1.187-2.422 1.952-3.61C5.063-10.75 5.97-12 6.938-13.25c.625-.906 1.39-1.656 2.078-2.5 1.312-1.375 2.703-2.625 4.375-3.594a7.275 7.275 0 0 1 2.078-.984c.203-.063.484-.14.687 0 .344.703.422.844.344 1.531 0 .906-.203 1.735-.406 2.563-.078.422-.282.703-.766.843a5.656 5.656 0 0 0-1.047.485c-1.594.687-3.11 1.515-4.5 2.625A5.257 5.257 0 0 0 8.11-9.703c-.14.547-.062.969.22 1.375.343.484.765.844 1.171 1.187.828.547 1.734.625 2.64.407.97-.204 1.938-.625 2.704-1.313.422-.344.828-.547 1.172-.906.765-.75 1.53-1.594 2.015-2.625.422-.969.969-1.875 1.11-2.922.078-.14.078-.203.14-.344 2.36-.828 4.094-1.312 5.485-1.531 1.312-.203.828-2-.485-1.656-1.39.203-3.468.828-4.656 1.172-.063-.547-.14-1.172-.203-1.735-.14-.968-.563-1.797-1.313-2.422-.28-.203-.562-.422-.906-.562-.828-.485-1.672-.61-2.562-.344-.625.219-1.25.422-1.813.766-.765.422-1.453.828-2.14 1.39-1.188.907-2.36 1.875-3.407 2.907-1.39 1.39-2.562 2.843-3.672 4.437-.343.485-.703.985-1.046 1.469-.063 0-.063-.078-.141-.078.078-.203.078-.406.14-.625.141-.485.22-.89.344-1.39.078-.407.219-.829.281-1.235.141-.703.344-1.469.485-2.156.281-1.532.562-3.047.844-4.579.125-.906.203-1.797.203-2.703 0-.765-.485-1.39-1.25-1.531-.281-.063-.485-.14-.688-.14-.422-.063-.765.078-.906.484-.14.218-.203.484-.281.703l-.625 2.562c-.406 1.672-.766 3.266-1.172 4.922-.14.703-.36 1.328-.484 2.016-.36 1.11-.563 2.219-.907 3.328-.343 1.39-.687 2.781-1.047 4.094-.265 1.172-.546 2.36-.828 3.531-.14.625-.344 1.25-.484 1.953-.422 1.86-.828 3.734-1.25 5.547-.281 1.25-.547 2.5-.828 3.672-.078.422-.219.828-.282 1.172-.28 1.531-.484 2.984-.765 4.515-.281 1.454-.484 2.985-.766 4.438 0 .344-.125.625-.125.906-.078.547.266 1.25 1.032 1.25zM10.407-8.875c.14-.906.406-1.672 1.031-2.219a6.418 6.418 0 0 1 1.329-1.047c.406-.343.89-.546 1.39-.828.063-.078.203-.078.344-.14 0 .14 0 .203-.078.28a11.866 11.866 0 0 1-3.188 3.532c-.28.281-.343.281-.828.422zm0 0"></path></symbol><symbol id="j" overflow="visible"><path d="M4.64-2.5c.844-.281 1.532-.688 2.22-1.172.843-.562 1.671-1.187 2.359-1.875.562-.625 1.187-1.25 1.734-1.875.703-.766 1.25-1.531 1.813-2.281 1.109-1.531 2.14-3.063 3.187-4.516.485-.625.906-1.25 1.313-1.875.078-.14.14-.281.218-.406.485-.844-.703-2.016-1.53-1.188-.204.204-.626.766-.907 1.188-.266.344-.547.688-.828 1.031a146.09 146.09 0 0 1-3.813 5.266c-.625.844-1.312 1.672-2.078 2.36a14.57 14.57 0 0 1-3.75 2.718c-.422.266-.906.406-1.453.484-.484.063-.766 0-.969-.484-.078-.078-.14-.281-.219-.422-.484-1.312-.343-2.703-.062-4.094.281-1.39.688-2.78 1.172-4.156 0-.078.078-.14.14-.281.22-.422.422-.828.626-1.313.421-.906.968-1.671 1.593-2.437.078-.14.219-.203.422-.344.422.906.688 1.875.906 2.844.063.062.125.203.266.281.219.14.484.266.766.485.28.203.562.14.828 0 .36-.282.562-.626.562-1.11-.062-.969-.344-1.875-.562-2.844-.125-.28-.344-.562-.406-.906 0-.062-.079-.14-.141-.203-.422-.422-.766-.766-1.188-1.11-.203-.218-.546-.343-.828-.421-1.172-.282-2.281-.14-3.328.687a8.642 8.642 0 0 0-2.281 2.782c-.766 1.39-1.469 2.843-1.875 4.437-.14.563-.344 1.11-.484 1.672-.344 1.453-.485 2.906-.344 4.36.062.624.203 1.327.61 1.812.077.14.14.281.14.406.14.563.484.906.843 1.25.688.563 1.454.906 2.22 1.188 1.03.484 2.077.406 3.109.062zm0 0"></path></symbol></defs><use height="100%" width="100%" xlink:href="#d" x="301.822" y="237.67" transform="translate(-76.52 533.842) scale(1.33333)"></use><use height="100%" width="100%" xlink:href="#d" x="384.766" y="237.67" transform="translate(-76.52 533.842) scale(1.33333)"></use><use y="278.897" x="363.585" xlink:href="#a" width="100%" height="100%" transform="matrix(1.33333 0 0 1.33333 368.746 27.024)"></use><use y="278.897" x="426.009" xlink:href="#a" width="100%" height="100%" transform="matrix(1.33333 0 0 1.33333 368.746 27.024)"></use><g transform="matrix(1.33333 0 0 1.33333 368.746 27.024)"><use height="100%" width="100%" xlink:href="#b" x="245.673" y="278.897"></use><use height="100%" width="100%" xlink:href="#c" x="306.71" y="278.897"></use><use height="100%" width="100%" xlink:href="#d" x="326.131" y="278.897"></use><use height="100%" width="100%" xlink:href="#e" x="344.858" y="278.897"></use></g><g transform="matrix(1.33333 0 0 1.33333 366.716 27.024)"><use height="100%" width="100%" xlink:href="#f" x="378.844" y="278.897"></use><use height="100%" width="100%" xlink:href="#g" x="407.975" y="278.897"></use></g><g transform="matrix(1.33333 0 0 1.33333 368.746 27.024)"><use height="100%" width="100%" xlink:href="#h" x="440.575" y="278.897"></use><use height="100%" width="100%" xlink:href="#i" x="466.238" y="278.897"></use><use height="100%" width="100%" xlink:href="#c" x="491.208" y="278.897"></use><use height="100%" width="100%" xlink:href="#j" x="510.628" y="278.897"></use><use height="100%" width="100%" xlink:href="#e" x="527.275" y="278.897"></use></g></svg> 